# xmcd
#
# Track frame offsets:
#	150
#	20250
#	44570
#	68375
#	95315
#	117495
#	143340
#	163642
#	186917
#	215952
#	237817
#	261777
#	286422
#
# Disc length: 4135 seconds
#
# Revision: 4
# Processed by: cddbd v1.5PL3 Copyright (c) Steve Scherf et al.
# Submitted via: CDex 1.50Beta5
#
DISCID=b610250d
DTITLE=Keyco - P-TRAIN
DYEAR=2002
DGENRE=Rock
TTITLE0=「上へ行こう」
TTITLE1=P-Train
TTITLE2=甘い雨
TTITLE3=callin’…
TTITLE4=FAMILY“original mix”
TTITLE5=PASSION
TTITLE6=前に
TTITLE7=Heart Beat
TTITLE8=パンゲア
TTITLE9=Catch the Vibration
TTITLE10=Magic Hour
TTITLE11=ハルニレ
TTITLE12=みんなシアワセ
EXTD=
EXTT0=
EXTT1=
EXTT2=
EXTT3=
EXTT4=
EXTT5=
EXTT6=
EXTT7=
EXTT8=
EXTT9=
EXTT10=
EXTT11=
EXTT12=
PLAYORDER=
